PathFileType  4	(X/Y/Z) C:\Users\antoi\Documents\MyRepositories\mobilecap\ResultsAnalysis
DataRate	CameraRate	NumFrames	NumMarkers	Units	OrigDataRate	OrigDataStartFrame	OrigNumFrames
100.0	100.0	6	51	mm	100.0	1	142
Frame#	Time	r_knee			r_shank_antsup			r_ankle			r_calc			r_5meta			r_toe			L_knee			L_shank_antsup			L_ankle			L_calc			L_5meta			L_toe			r_sh2			r_sh3			r_sh4			L_sh2			L_sh3			r_thigh1			r_thigh2			r_thigh3			r_thigh4			r_thigh5			L_thigh1			L_thigh2			L_thigh3			L_thigh4			r.ASIS			r.PSIS			L.ASIS			L.PSIS			C7			R_Shoulder			L_Shoulder			R_Sternum			L_Sternum			R_humerus			R_elbow_med			R_elbow_lat			R_forearm			R_wrist_radius			R_wrist_ulna			L_humerus			L_elbow_med			L_elbow_lat			L_forearm			L_wrist_radius			L_wrist_ulna			R_HJC			L_HJC			R_HJC_reg			L_HJC_reg			
		X1	Y1	Z1	X2	Y2	Z2	X3	Y3	Z3	X4	Y4	Z4	X5	Y5	Z5	X6	Y6	Z6	X7	Y7	Z7	X8	Y8	Z8	X9	Y9	Z9	X10	Y10	Z10	X11	Y11	Z11	X12	Y12	Z12	X13	Y13	Z13	X14	Y14	Z14	X15	Y15	Z15	X16	Y16	Z16	X17	Y17	Z17	X18	Y18	Z18	X19	Y19	Z19	X20	Y20	Z20	X21	Y21	Z21	X22	Y22	Z22	X23	Y23	Z23	X24	Y24	Z24	X25	Y25	Z25	X26	Y26	Z26	X27	Y27	Z27	X28	Y28	Z28	X29	Y29	Z29	X30	Y30	Z30	X31	Y31	Z31	X32	Y32	Z32	X33	Y33	Z33	X34	Y34	Z34	X35	Y35	Z35	X36	Y36	Z36	X37	Y37	Z37	X38	Y38	Z38	X39	Y39	Z39	X40	Y40	Z40	X41	Y41	Z41	X42	Y42	Z42	X43	Y43	Z43	X44	Y44	Z44	X45	Y45	Z45	X46	Y46	Z46	X47	Y47	Z47	X48	Y48	Z48	X49	Y49	Z49	X50	Y50	Z50	X51	Y51	Z51	

1	0.00000000	-6.02425	466.48110	-112.73383	27.04531	404.94563	-85.84607	110.66247	105.39424	-109.89774	69.22919	43.85226	-151.92273	226.22994	103.71629	-80.41513	254.19213	145.84588	-132.52299	-327.27777	465.71081	-417.36010	-332.90853	396.51842	-422.54106	-510.17178	138.14678	-405.89366	-588.98221	130.99334	-361.49429	-451.86026	48.76378	-434.27428	-395.66990	52.11927	-381.55573	61.51322	298.12427	-78.37097	-42.05268	378.93882	-100.95734	-14.44921	268.45446	-97.75978	-408.64319	446.07675	-433.42207	-463.09299	336.09743	-439.00941	-61.35966	771.66918	-128.41703	-13.25482	670.38159	-117.16335	-49.55340	635.46143	-71.04230	-153.32473	739.39349	-68.57592	-111.59146	630.59616	-72.02659	-159.33987	708.18016	-443.25877	-205.48189	577.47918	-440.21446	-269.59873	744.76484	-452.07549	-308.70873	609.92539	-432.85973	-99.01680	895.60963	-147.73944	-281.88945	896.78241	-214.65719	-101.76755	876.80163	-406.57575	-286.51062	896.68770	-320.08200	-217.91977	1365.28109	-283.81757	-191.55250	1304.21847	-122.11589	-135.39002	1310.47085	-438.22310	-111.03296	1276.57503	-249.00281	-103.86039	1276.95762	-292.84034	-208.32140	1063.98550	-48.00586	-243.82412	961.58581	-108.16028	-239.94313	980.59899	-37.45050	-186.46888	872.38370	-9.70013	-159.42326	756.95078	1.45129	-202.74409	746.24143	0.22640	-83.08413	1182.55110	-474.18475	-139.21057	965.71565	-467.75799	-104.83661	978.61181	-517.09887	-32.03568	894.68257	-505.70202	4.84250	775.97931	-482.25643	-18.57344	760.11967	-508.23295	-160.02773	814.67397	-168.88557	-163.09145	806.00601	-368.96649	-151.02638	797.90542	-181.82492	-158.52763	797.75225	-352.95112	
2	0.01000000	8.07122	464.00923	-112.49481	39.51683	401.51872	-85.89946	118.28179	101.96453	-110.47655	73.16140	45.77113	-152.33137	232.87425	94.17354	-81.99379	263.04616	134.85586	-134.05511	-313.18108	464.77565	-417.19297	-320.02176	395.21209	-422.45129	-504.87235	142.30766	-406.04430	-583.75911	137.99790	-361.23638	-450.20537	50.08506	-434.13205	-394.09230	51.66316	-381.47537	72.14233	294.07756	-79.17811	-29.76358	376.78147	-100.84625	-4.40112	265.86361	-98.31181	-394.39725	446.72503	-433.26181	-451.93790	338.63650	-438.95974	-45.16562	770.45898	-127.49101	2.30579	668.53129	-117.23520	-34.29250	633.48300	-71.49389	-136.99764	738.02172	-66.93500	-95.25481	628.99576	-71.61307	-145.72841	707.68142	-442.20053	-191.47893	576.85159	-439.38711	-255.81594	744.22320	-448.50357	-294.75443	609.11082	-430.73944	-82.70802	894.22351	-146.00525	-266.62318	895.35333	-211.79388	-87.28558	875.77962	-404.76936	-271.51519	895.36925	-316.99172	-204.88682	1363.90585	-279.33130	-176.84295	1302.36502	-117.97726	-123.04686	1309.65767	-434.33123	-97.21981	1275.42242	-245.55407	-90.30350	1276.03819	-289.48686	-194.01985	1061.57184	-45.32989	-229.78202	959.84114	-106.27412	-225.92487	978.28205	-35.48909	-174.00969	869.33108	-8.07592	-148.83565	753.58609	2.54255	-192.12949	743.40152	0.89554	-70.58740	1182.05574	-470.87494	-126.95870	965.38382	-464.20520	-93.28785	978.22367	-513.91361	-20.79890	893.85815	-503.87841	15.92049	774.90664	-481.54376	-8.07243	759.26774	-507.29852	-144.02676	813.27898	-166.83007	-148.37270	804.87446	-366.89040	-135.39850	796.58022	-180.02355	-143.35445	796.60545	-351.09580	
3	0.02000000	22.04974	461.72603	-112.23016	52.10733	398.37187	-85.98650	125.74306	98.76460	-111.09484	76.95057	47.68670	-152.73482	239.19826	84.97476	-83.51253	271.59075	124.06682	-135.56004	-298.60172	463.72296	-416.99800	-306.79330	393.87715	-422.36503	-499.15707	146.58802	-406.06692	-578.00929	145.32087	-360.80230	-448.41823	51.57144	-433.91701	-392.43203	51.18724	-381.34506	82.95481	290.34453	-79.96047	-17.49986	374.96158	-100.69580	5.85109	263.53620	-98.81499	-379.74824	447.37714	-433.03027	-440.43181	341.22591	-438.78895	-29.11969	769.27339	-126.46187	17.74086	666.74600	-117.08610	-19.17876	631.60097	-71.72744	-120.79479	736.81427	-65.27312	-79.21418	627.53234	-71.12888	-131.82751	707.17414	-440.97576	-177.09874	576.18789	-438.50707	-241.81976	743.58766	-444.96695	-280.44720	608.17274	-428.65963	-66.45207	892.88132	-144.21667	-251.33033	894.04457	-208.91888	-72.74219	874.80719	-402.92136	-256.47575	894.09926	-313.94057	-191.79318	1362.63823	-274.82554	-162.08217	1300.58861	-113.81386	-110.71328	1308.90758	-430.45162	-83.38857	1274.37988	-242.07028	-76.71395	1275.20874	-286.08040	-179.54626	1059.24424	-42.60027	-215.62250	958.15382	-104.29532	-211.72405	976.03378	-33.45424	-161.38345	866.35395	-6.40981	-138.09128	750.29861	3.65844	-181.36429	740.65172	1.66742	-58.15446	1181.57322	-467.57449	-114.78640	965.06948	-460.69634	-81.82674	977.86240	-510.76050	-9.63326	893.07651	-502.10437	26.92113	773.87234	-480.87379	2.37030	758.46134	-506.37443	-128.06017	811.95036	-164.73935	-133.61489	803.79534	-364.78010	-119.83263	795.40030	-178.11816	-128.21138	795.48675	-349.14460	
4	0.03000000	35.88458	459.82891	-111.91802	64.92148	395.73899	-86.11014	132.84573	95.98102	-111.76638	80.44107	49.56396	-153.11335	244.91423	76.45392	-84.89852	279.50872	113.72822	-136.99350	-283.12292	462.45582	-416.76134	-292.92333	392.48914	-422.29399	-492.65956	151.09510	-405.85876	-571.24628	153.24397	-360.04429	-446.39040	53.37686	-433.56698	-390.61625	50.69040	-381.13607	94.04971	287.17407	-80.68251	-5.23351	373.75958	-100.44607	16.40770	261.71991	-99.18986	-364.34665	448.02810	-432.67366	-428.25727	343.90466	-438.39559	-13.33880	768.20417	-125.23357	32.95552	665.14779	-116.54860	-4.31645	629.95432	-71.56867	-104.83083	735.92303	-63.55950	-63.67588	626.35369	-70.50326	-117.40415	706.66226	-439.46208	-162.01033	575.46084	-437.53388	-227.42841	742.77176	-441.50947	-265.48440	607.00054	-426.66577	-50.32580	891.64916	-142.32594	-236.02465	892.97933	-206.05802	-58.08514	873.93650	-400.99301	-241.37742	892.92762	-310.98544	-178.59367	1361.57776	-270.29069	-147.23528	1298.96841	-109.61253	-98.38444	1308.28225	-426.59581	-69.52510	1273.54425	-238.52631	-63.07691	1274.55011	-282.58687	-164.75393	1057.08915	-39.77890	-201.24419	956.58672	-102.15406	-197.18947	973.92884	-31.28788	-148.44805	863.53351	-4.67003	-127.04573	747.16366	4.81169	-170.32295	738.08646	2.62580	-45.83367	1181.12630	-464.29982	-102.75649	964.79773	-457.26417	-70.52019	977.56226	-507.66455	1.40153	892.38180	-500.41987	37.79282	772.92173	-480.29050	12.70148	757.74628	-505.47098	-112.19226	810.77105	-162.58583	-118.79069	802.82336	-362.60924	-104.41225	794.52081	-176.01600	-113.13316	794.43205	-347.01021	
5	0.04000000	49.64236	458.50730	-111.53503	77.99730	393.77335	-86.22473	139.34661	93.73135	-112.46399	83.47541	51.32887	-153.43198	249.79755	68.91188	-86.06569	286.49326	104.15017	-138.28820	-266.45407	460.91137	-416.49037	-278.18835	391.02868	-422.25935	-485.10462	155.91484	-405.35793	-563.05987	161.97037	-358.86125	-444.04278	55.63881	-433.03637	-388.58155	50.20899	-380.85230	105.37250	284.71048	-81.28985	7.09561	373.35445	-100.01267	27.19120	260.62077	-99.32293	-347.93692	448.65930	-432.16559	-415.15810	346.68865	-437.71375	2.09742	767.42952	-123.73160	47.89034	663.93047	-115.54638	10.24629	628.73174	-70.92208	-89.21236	735.47555	-61.75479	-48.71649	625.61366	-69.67148	-102.32662	706.16644	-437.60577	-145.97793	574.66006	-436.44958	-212.52618	741.70380	-438.18754	-249.65959	605.50840	-424.80952	-34.44622	890.62725	-140.29783	-220.78545	892.27705	-203.29095	-43.29388	873.22236	-398.95138	-226.25954	891.90665	-308.21007	-165.27488	1360.80916	-265.73640	-132.30260	1297.58684	-105.38260	-86.04352	1307.84163	-422.77658	-55.63294	1272.98853	-234.91665	-49.41315	1274.12647	-279.00457	-149.55187	1055.19370	-36.85511	-186.58232	955.21294	-99.81935	-182.23306	972.05285	-28.95882	-135.11096	860.96143	-2.84174	-115.58471	744.25729	5.99901	-158.92622	735.80781	3.82339	-33.65466	1180.75591	-461.07941	-90.91232	964.60862	-453.92544	-59.40805	977.37054	-504.64159	12.25963	891.82190	-498.84804	48.51321	772.10999	-479.83719	22.87088	757.17025	-504.59685	-96.53669	809.84693	-160.35558	-103.90207	802.01554	-360.36508	-89.25210	794.09993	-173.64815	-98.16938	793.49098	-344.62436	
6	0.05000000	63.41087	457.90323	-111.03932	91.25159	392.53395	-86.23283	145.00722	92.06148	-113.12023	85.93007	52.89094	-153.65370	253.71287	62.57520	-86.93006	292.29639	95.66027	-139.36296	-248.44034	459.05691	-416.21239	-262.43291	389.47282	-422.28633	-476.32069	161.11801	-404.54150	-553.11793	171.60756	-357.19399	-441.31648	58.49026	-432.29536	-386.27161	49.82797	-380.53126	116.69943	282.98974	-81.70158	19.50413	373.81013	-99.29723	37.94379	260.37511	-99.08890	-330.34438	449.23607	-431.50673	-400.93137	349.56486	-436.71886	17.14800	767.17758	-121.92014	62.51937	663.32348	-114.10172	24.51641	628.13832	-69.78434	-74.02424	735.56818	-59.81971	-34.28779	625.45300	-68.58291	-86.56381	705.71912	-435.41726	-128.87218	573.79347	-435.26190	-197.06777	740.32805	-435.06462	-232.86512	603.63741	-423.14431	-18.95063	889.94702	-138.10826	-205.73665	892.03780	-200.73785	-28.38702	872.71784	-396.76653	-211.20606	891.08923	-305.72011	-151.84709	1360.39911	-261.19020	-117.31244	1296.52760	-101.15520	-73.66179	1307.64432	-419.00563	-41.73106	1272.75762	-231.25563	-35.76853	1273.98226	-275.36112	-133.90775	1053.64354	-33.84523	-171.60496	954.11639	-97.29898	-166.82735	970.50116	-26.46397	-121.32574	858.73831	-0.92571	-103.62742	741.65997	7.20934	-147.13479	733.92346	5.28256	-21.62040	1180.52483	-457.94968	-79.27277	964.56150	-450.67838	-48.49645	977.34973	-501.69707	22.91701	891.45014	-497.38977	59.08272	771.49914	-479.55102	32.83730	756.78418	-503.75551	-81.23675	809.29993	-158.04658	-88.97540	801.42713	-358.04583	-74.47068	794.27628	-170.97419	-83.37475	792.72695	-341.94153	
